<mxfile host="app.diagrams.net" modified="2020-09-24T06:18:48.241Z" agent="5.0 (Windows NT 10.0; Win64; x64) AppleWebKit/537.36 (KHTML, like Gecko) Chrome/85.0.4183.102 Safari/537.36 Edg/85.0.564.51" etag="5Kr8U2EE5wk6M_Eelanh" version="13.7.5" type="github">
  <diagram id="C5RBs43oDa-KdzZeNtuy" name="Page-1">
    <mxGraphModel dx="1175" dy="448" grid="1" gridSize="10" guides="1" tooltips="1" connect="1" arrows="1" fold="1" page="1" pageScale="1" pageWidth="583" pageHeight="827" background="#F1FAEE" math="0" shadow="1">
      <root>
        <mxCell id="WIyWlLk6GJQsqaUBKTNV-0" />
        <mxCell id="WIyWlLk6GJQsqaUBKTNV-1" parent="WIyWlLk6GJQsqaUBKTNV-0" />
        <mxCell id="WIyWlLk6GJQsqaUBKTNV-2" value="" style="rounded=0;html=1;jettySize=auto;orthogonalLoop=1;fontSize=11;endArrow=block;endFill=0;endSize=8;strokeWidth=1;shadow=0;labelBackgroundColor=none;edgeStyle=orthogonalEdgeStyle;entryX=0.5;entryY=0;entryDx=0;entryDy=0;strokeColor=#457B9D;fontColor=#1D3557;" parent="WIyWlLk6GJQsqaUBKTNV-1" source="WIyWlLk6GJQsqaUBKTNV-3" target="c1uK9i9pC-8xZbUMP80n-2" edge="1">
          <mxGeometry relative="1" as="geometry">
            <mxPoint x="553.75" y="254" as="targetPoint" />
            <Array as="points">
              <mxPoint x="553.75" y="244" />
              <mxPoint x="553.75" y="244" />
            </Array>
          </mxGeometry>
        </mxCell>
        <mxCell id="WIyWlLk6GJQsqaUBKTNV-3" value="User enters Trash" style="rounded=1;whiteSpace=wrap;html=1;fontSize=12;glass=0;strokeWidth=1;shadow=0;fillColor=#A8DADC;strokeColor=#457B9D;fontColor=#1D3557;" parent="WIyWlLk6GJQsqaUBKTNV-1" vertex="1">
          <mxGeometry x="493.75" y="194" width="120" height="40" as="geometry" />
        </mxCell>
        <mxCell id="c1uK9i9pC-8xZbUMP80n-2" value="Ultrasonic sensor detects trash and starts conveyor belt" style="rounded=1;whiteSpace=wrap;html=1;fillColor=#A8DADC;strokeColor=#457B9D;fontColor=#1D3557;" vertex="1" parent="WIyWlLk6GJQsqaUBKTNV-1">
          <mxGeometry x="473.75" y="264" width="160" height="50" as="geometry" />
        </mxCell>
        <mxCell id="c1uK9i9pC-8xZbUMP80n-5" value="" style="endArrow=classic;html=1;exitX=0.5;exitY=1;exitDx=0;exitDy=0;entryX=0.5;entryY=0;entryDx=0;entryDy=0;strokeColor=#457B9D;fontColor=#1D3557;labelBackgroundColor=#F1FAEE;" edge="1" parent="WIyWlLk6GJQsqaUBKTNV-1" source="c1uK9i9pC-8xZbUMP80n-2">
          <mxGeometry width="50" height="50" relative="1" as="geometry">
            <mxPoint x="593.75" y="374" as="sourcePoint" />
            <mxPoint x="553.75" y="334" as="targetPoint" />
          </mxGeometry>
        </mxCell>
        <mxCell id="c1uK9i9pC-8xZbUMP80n-6" value="meta waste detected by eddy current&lt;br&gt;sensor" style="rectangle;whiteSpace=wrap;html=1;rounded=1;fillColor=#A8DADC;strokeColor=#457B9D;fontColor=#1D3557;" vertex="1" parent="WIyWlLk6GJQsqaUBKTNV-1">
          <mxGeometry x="470" y="334" width="167.5" height="60" as="geometry" />
        </mxCell>
        <mxCell id="c1uK9i9pC-8xZbUMP80n-10" value="Conveyor stops and robotic arm with electromagnet&amp;nbsp; takes out ferrous metals" style="rounded=1;whiteSpace=wrap;html=1;fillColor=#A8DADC;strokeColor=#457B9D;fontColor=#1D3557;" vertex="1" parent="WIyWlLk6GJQsqaUBKTNV-1">
          <mxGeometry x="473.75" y="414" width="160" height="60" as="geometry" />
        </mxCell>
        <mxCell id="c1uK9i9pC-8xZbUMP80n-11" value="" style="endArrow=classic;html=1;exitX=0.5;exitY=1;exitDx=0;exitDy=0;entryX=0.5;entryY=0;entryDx=0;entryDy=0;strokeColor=#457B9D;fontColor=#1D3557;labelBackgroundColor=#F1FAEE;" edge="1" parent="WIyWlLk6GJQsqaUBKTNV-1" source="c1uK9i9pC-8xZbUMP80n-6" target="c1uK9i9pC-8xZbUMP80n-10">
          <mxGeometry width="50" height="50" relative="1" as="geometry">
            <mxPoint x="593.75" y="354" as="sourcePoint" />
            <mxPoint x="643.75" y="304" as="targetPoint" />
          </mxGeometry>
        </mxCell>
        <mxCell id="c1uK9i9pC-8xZbUMP80n-12" value="" style="endArrow=classic;html=1;exitX=1;exitY=0.5;exitDx=0;exitDy=0;strokeColor=#457B9D;fontColor=#1D3557;labelBackgroundColor=#F1FAEE;" edge="1" parent="WIyWlLk6GJQsqaUBKTNV-1" source="c1uK9i9pC-8xZbUMP80n-6">
          <mxGeometry width="50" height="50" relative="1" as="geometry">
            <mxPoint x="593.75" y="354" as="sourcePoint" />
            <mxPoint x="637.75" y="524" as="targetPoint" />
            <Array as="points">
              <mxPoint x="683.75" y="364" />
              <mxPoint x="683.75" y="524" />
            </Array>
          </mxGeometry>
        </mxCell>
        <mxCell id="c1uK9i9pC-8xZbUMP80n-14" value="Blower pushes dry solid waste to a separate bin" style="rounded=1;whiteSpace=wrap;html=1;fillColor=#A8DADC;strokeColor=#457B9D;fontColor=#1D3557;" vertex="1" parent="WIyWlLk6GJQsqaUBKTNV-1">
          <mxGeometry x="473.75" y="494" width="160" height="60" as="geometry" />
        </mxCell>
        <mxCell id="c1uK9i9pC-8xZbUMP80n-15" value="wet and heavy&amp;nbsp; trash is left as it is so it will fall at the end of conveyor belt due to gravity" style="rounded=1;whiteSpace=wrap;html=1;fillColor=#A8DADC;strokeColor=#457B9D;fontColor=#1D3557;" vertex="1" parent="WIyWlLk6GJQsqaUBKTNV-1">
          <mxGeometry x="473.75" y="574" width="160" height="60" as="geometry" />
        </mxCell>
        <mxCell id="c1uK9i9pC-8xZbUMP80n-16" value="" style="endArrow=classic;html=1;exitX=0.5;exitY=1;exitDx=0;exitDy=0;entryX=0.5;entryY=0;entryDx=0;entryDy=0;strokeColor=#457B9D;fontColor=#1D3557;labelBackgroundColor=#F1FAEE;" edge="1" parent="WIyWlLk6GJQsqaUBKTNV-1" source="c1uK9i9pC-8xZbUMP80n-10" target="c1uK9i9pC-8xZbUMP80n-14">
          <mxGeometry width="50" height="50" relative="1" as="geometry">
            <mxPoint x="593.75" y="534" as="sourcePoint" />
            <mxPoint x="643.75" y="484" as="targetPoint" />
          </mxGeometry>
        </mxCell>
        <mxCell id="c1uK9i9pC-8xZbUMP80n-17" value="" style="endArrow=classic;html=1;exitX=0.5;exitY=1;exitDx=0;exitDy=0;entryX=0.5;entryY=0;entryDx=0;entryDy=0;strokeColor=#457B9D;fontColor=#1D3557;labelBackgroundColor=#F1FAEE;" edge="1" parent="WIyWlLk6GJQsqaUBKTNV-1" source="c1uK9i9pC-8xZbUMP80n-14" target="c1uK9i9pC-8xZbUMP80n-15">
          <mxGeometry width="50" height="50" relative="1" as="geometry">
            <mxPoint x="563.75" y="484" as="sourcePoint" />
            <mxPoint x="563.75" y="504" as="targetPoint" />
          </mxGeometry>
        </mxCell>
        <mxCell id="c1uK9i9pC-8xZbUMP80n-18" value="&lt;b&gt;NO&lt;/b&gt;" style="text;html=1;strokeColor=none;fillColor=none;align=center;verticalAlign=middle;whiteSpace=wrap;rounded=0;fontColor=#1D3557;" vertex="1" parent="WIyWlLk6GJQsqaUBKTNV-1">
          <mxGeometry x="637.5" y="344" width="40" height="20" as="geometry" />
        </mxCell>
        <mxCell id="c1uK9i9pC-8xZbUMP80n-19" value="&lt;b&gt;YES&lt;/b&gt;" style="text;html=1;strokeColor=none;fillColor=none;align=center;verticalAlign=middle;whiteSpace=wrap;rounded=0;fontColor=#1D3557;" vertex="1" parent="WIyWlLk6GJQsqaUBKTNV-1">
          <mxGeometry x="553.75" y="394" width="40" height="20" as="geometry" />
        </mxCell>
        <mxCell id="c1uK9i9pC-8xZbUMP80n-20" value="" style="endArrow=classic;html=1;exitX=1;exitY=0.5;exitDx=0;exitDy=0;strokeColor=#457B9D;fontColor=#1D3557;labelBackgroundColor=#F1FAEE;" edge="1" parent="WIyWlLk6GJQsqaUBKTNV-1" source="c1uK9i9pC-8xZbUMP80n-2">
          <mxGeometry width="50" height="50" relative="1" as="geometry">
            <mxPoint x="593.75" y="444" as="sourcePoint" />
            <mxPoint x="683.75" y="289" as="targetPoint" />
          </mxGeometry>
        </mxCell>
        <mxCell id="c1uK9i9pC-8xZbUMP80n-21" value="System Idle" style="rhombus;whiteSpace=wrap;html=1;rounded=1;fillColor=#A8DADC;strokeColor=#457B9D;fontColor=#1D3557;" vertex="1" parent="WIyWlLk6GJQsqaUBKTNV-1">
          <mxGeometry x="677.5" y="249" width="80" height="80" as="geometry" />
        </mxCell>
        <mxCell id="c1uK9i9pC-8xZbUMP80n-22" value="&lt;b&gt;YES&lt;/b&gt;" style="text;html=1;strokeColor=none;fillColor=none;align=center;verticalAlign=middle;whiteSpace=wrap;rounded=0;fontColor=#1D3557;" vertex="1" parent="WIyWlLk6GJQsqaUBKTNV-1">
          <mxGeometry x="563.75" y="314" width="40" height="20" as="geometry" />
        </mxCell>
        <mxCell id="c1uK9i9pC-8xZbUMP80n-23" value="&lt;b&gt;NO&lt;/b&gt;" style="text;html=1;strokeColor=none;fillColor=none;align=center;verticalAlign=middle;whiteSpace=wrap;rounded=0;fontColor=#1D3557;" vertex="1" parent="WIyWlLk6GJQsqaUBKTNV-1">
          <mxGeometry x="637.5" y="267" width="40" height="20" as="geometry" />
        </mxCell>
      </root>
    </mxGraphModel>
  </diagram>
</mxfile>
